<mxfile host="app.diagrams.net" modified="2023-08-14T09:01:31.812Z" agent="Mozilla/5.0 (Windows NT 10.0; Win64; x64) AppleWebKit/537.36 (KHTML, like Gecko) Chrome/115.0.0.0 Safari/537.36 Edg/115.0.1901.203" etag="YgDYhmHk2L4Konusg_TM" version="21.6.6" type="device" pages="7">
  <diagram name="第 1 页" id="A8BSAFfyFNqyWpiD1xuT">
    <mxGraphModel dx="710" dy="737" grid="1" gridSize="10" guides="1" tooltips="1" connect="1" arrows="1" fold="1" page="0" pageScale="1" pageWidth="827" pageHeight="1169" math="0" shadow="0">
      <root>
        <mxCell id="0" />
        <mxCell id="1" parent="0" />
        <mxCell id="mKDrDDWNccAdjp6x78uJ-15" value="" style="whiteSpace=wrap;html=1;aspect=fixed;fontSize=16;" vertex="1" parent="1">
          <mxGeometry x="120" y="-70" width="390" height="390" as="geometry" />
        </mxCell>
        <mxCell id="mKDrDDWNccAdjp6x78uJ-1" value="管理者" style="shape=umlActor;verticalLabelPosition=bottom;verticalAlign=top;html=1;outlineConnect=0;fontSize=16;" vertex="1" parent="1">
          <mxGeometry x="50" y="20" width="30" height="90" as="geometry" />
        </mxCell>
        <mxCell id="mKDrDDWNccAdjp6x78uJ-8" value="本の登録" style="ellipse;whiteSpace=wrap;html=1;fontSize=16;" vertex="1" parent="1">
          <mxGeometry x="220" y="-20" width="120" height="60" as="geometry" />
        </mxCell>
        <mxCell id="mKDrDDWNccAdjp6x78uJ-9" style="edgeStyle=none;curved=1;rounded=0;orthogonalLoop=1;jettySize=auto;html=1;exitX=1;exitY=0.5;exitDx=0;exitDy=0;fontSize=12;startSize=8;endSize=8;" edge="1" parent="1" source="mKDrDDWNccAdjp6x78uJ-8" target="mKDrDDWNccAdjp6x78uJ-8">
          <mxGeometry relative="1" as="geometry" />
        </mxCell>
        <mxCell id="mKDrDDWNccAdjp6x78uJ-10" style="edgeStyle=none;curved=1;rounded=0;orthogonalLoop=1;jettySize=auto;html=1;exitX=0.5;exitY=0;exitDx=0;exitDy=0;fontSize=12;startSize=8;endSize=8;" edge="1" parent="1" source="mKDrDDWNccAdjp6x78uJ-8" target="mKDrDDWNccAdjp6x78uJ-8">
          <mxGeometry relative="1" as="geometry" />
        </mxCell>
        <mxCell id="mKDrDDWNccAdjp6x78uJ-11" style="edgeStyle=none;curved=1;rounded=0;orthogonalLoop=1;jettySize=auto;html=1;exitX=1;exitY=0.5;exitDx=0;exitDy=0;fontSize=12;startSize=8;endSize=8;" edge="1" parent="1" source="mKDrDDWNccAdjp6x78uJ-8" target="mKDrDDWNccAdjp6x78uJ-8">
          <mxGeometry relative="1" as="geometry" />
        </mxCell>
        <mxCell id="mKDrDDWNccAdjp6x78uJ-12" value="本の編集" style="ellipse;whiteSpace=wrap;html=1;fontSize=16;" vertex="1" parent="1">
          <mxGeometry x="220" y="50" width="120" height="60" as="geometry" />
        </mxCell>
        <mxCell id="mKDrDDWNccAdjp6x78uJ-13" value="login" style="ellipse;whiteSpace=wrap;html=1;fontSize=16;" vertex="1" parent="1">
          <mxGeometry x="220" y="190" width="120" height="60" as="geometry" />
        </mxCell>
        <mxCell id="mKDrDDWNccAdjp6x78uJ-14" value="本の削除" style="ellipse;whiteSpace=wrap;html=1;fontSize=16;" vertex="1" parent="1">
          <mxGeometry x="220" y="120" width="120" height="60" as="geometry" />
        </mxCell>
        <mxCell id="mKDrDDWNccAdjp6x78uJ-17" value="本管理system" style="text;html=1;strokeColor=none;fillColor=none;align=center;verticalAlign=middle;whiteSpace=wrap;rounded=0;fontSize=16;" vertex="1" parent="1">
          <mxGeometry x="250" y="-60" width="60" height="30" as="geometry" />
        </mxCell>
        <mxCell id="mKDrDDWNccAdjp6x78uJ-19" value="" style="endArrow=classic;html=1;rounded=0;fontSize=12;startSize=8;endSize=8;curved=1;exitX=1;exitY=0.3333333333333333;exitDx=0;exitDy=0;exitPerimeter=0;entryX=0;entryY=0.5;entryDx=0;entryDy=0;" edge="1" parent="1" source="mKDrDDWNccAdjp6x78uJ-1" target="mKDrDDWNccAdjp6x78uJ-8">
          <mxGeometry width="50" height="50" relative="1" as="geometry">
            <mxPoint x="170" y="60" as="sourcePoint" />
            <mxPoint x="220" y="10" as="targetPoint" />
          </mxGeometry>
        </mxCell>
        <mxCell id="mKDrDDWNccAdjp6x78uJ-21" value="" style="endArrow=classic;html=1;rounded=0;fontSize=12;startSize=8;endSize=8;curved=1;exitX=1;exitY=0.3333333333333333;exitDx=0;exitDy=0;exitPerimeter=0;entryX=0;entryY=0.5;entryDx=0;entryDy=0;" edge="1" parent="1" source="mKDrDDWNccAdjp6x78uJ-1" target="mKDrDDWNccAdjp6x78uJ-14">
          <mxGeometry width="50" height="50" relative="1" as="geometry">
            <mxPoint x="170" y="190" as="sourcePoint" />
            <mxPoint x="220" y="140" as="targetPoint" />
          </mxGeometry>
        </mxCell>
        <mxCell id="mKDrDDWNccAdjp6x78uJ-22" value="" style="endArrow=classic;html=1;rounded=0;fontSize=12;startSize=8;endSize=8;curved=1;exitX=1;exitY=0.3333333333333333;exitDx=0;exitDy=0;exitPerimeter=0;entryX=0;entryY=0.5;entryDx=0;entryDy=0;" edge="1" parent="1" source="mKDrDDWNccAdjp6x78uJ-1" target="mKDrDDWNccAdjp6x78uJ-13">
          <mxGeometry width="50" height="50" relative="1" as="geometry">
            <mxPoint x="90" y="50" as="sourcePoint" />
            <mxPoint x="220" y="210" as="targetPoint" />
          </mxGeometry>
        </mxCell>
        <mxCell id="mKDrDDWNccAdjp6x78uJ-24" value="" style="endArrow=classic;html=1;rounded=0;fontSize=12;startSize=8;endSize=8;curved=1;exitX=1;exitY=0.3333333333333333;exitDx=0;exitDy=0;exitPerimeter=0;entryX=0;entryY=0.5;entryDx=0;entryDy=0;" edge="1" parent="1" source="mKDrDDWNccAdjp6x78uJ-1" target="mKDrDDWNccAdjp6x78uJ-12">
          <mxGeometry width="50" height="50" relative="1" as="geometry">
            <mxPoint x="170" y="120" as="sourcePoint" />
            <mxPoint x="220" y="70" as="targetPoint" />
          </mxGeometry>
        </mxCell>
        <mxCell id="F3XBGFnd7GRurOZAdu-K-1" value="logout" style="ellipse;whiteSpace=wrap;html=1;fontSize=16;" vertex="1" parent="1">
          <mxGeometry x="220" y="260" width="120" height="60" as="geometry" />
        </mxCell>
        <mxCell id="F3XBGFnd7GRurOZAdu-K-3" value="" style="endArrow=classic;html=1;rounded=0;fontSize=12;startSize=8;endSize=8;curved=1;entryX=0;entryY=0.5;entryDx=0;entryDy=0;exitX=1;exitY=0.3333333333333333;exitDx=0;exitDy=0;exitPerimeter=0;" edge="1" parent="1" source="mKDrDDWNccAdjp6x78uJ-1" target="F3XBGFnd7GRurOZAdu-K-1">
          <mxGeometry width="50" height="50" relative="1" as="geometry">
            <mxPoint x="80" y="50" as="sourcePoint" />
            <mxPoint x="210" y="250" as="targetPoint" />
          </mxGeometry>
        </mxCell>
      </root>
    </mxGraphModel>
  </diagram>
  <diagram id="Hzsbq7kSrWIbnLM7F14-" name="第 2 页">
    <mxGraphModel dx="1110" dy="337" grid="1" gridSize="10" guides="1" tooltips="1" connect="1" arrows="1" fold="1" page="0" pageScale="1" pageWidth="827" pageHeight="1169" math="0" shadow="0">
      <root>
        <mxCell id="0" />
        <mxCell id="1" parent="0" />
        <mxCell id="Rg-Amzfi7OlPi7BPqJtI-6" value="" style="whiteSpace=wrap;html=1;aspect=fixed;fontSize=16;" vertex="1" parent="1">
          <mxGeometry y="70" width="370" height="370" as="geometry" />
        </mxCell>
        <mxCell id="MizX8AgPKp0LLZ88XBjT-1" value="consumer" style="shape=umlActor;verticalLabelPosition=bottom;verticalAlign=top;html=1;fontSize=16;" vertex="1" parent="1">
          <mxGeometry x="-40" y="170" width="30" height="60" as="geometry" />
        </mxCell>
        <mxCell id="Rg-Amzfi7OlPi7BPqJtI-1" value="ECsite" style="text;html=1;align=center;verticalAlign=middle;resizable=0;points=[];autosize=1;strokeColor=none;fillColor=none;fontSize=16;" vertex="1" parent="1">
          <mxGeometry x="125" y="80" width="70" height="30" as="geometry" />
        </mxCell>
        <mxCell id="Rg-Amzfi7OlPi7BPqJtI-2" value="purchase" style="ellipse;whiteSpace=wrap;html=1;fontSize=16;" vertex="1" parent="1">
          <mxGeometry x="100" y="120" width="140" height="70" as="geometry" />
        </mxCell>
        <mxCell id="Rg-Amzfi7OlPi7BPqJtI-3" value="intelligence" style="ellipse;whiteSpace=wrap;html=1;fontSize=16;" vertex="1" parent="1">
          <mxGeometry x="100" y="200" width="140" height="70" as="geometry" />
        </mxCell>
        <mxCell id="Rg-Amzfi7OlPi7BPqJtI-4" value="point" style="ellipse;whiteSpace=wrap;html=1;fontSize=16;" vertex="1" parent="1">
          <mxGeometry x="100" y="280" width="140" height="70" as="geometry" />
        </mxCell>
        <mxCell id="Rg-Amzfi7OlPi7BPqJtI-5" value="trace" style="ellipse;whiteSpace=wrap;html=1;fontSize=16;" vertex="1" parent="1">
          <mxGeometry x="100" y="360" width="140" height="70" as="geometry" />
        </mxCell>
        <mxCell id="akGYXQg80y4Ffx2eCv8U-1" value="" style="endArrow=classic;html=1;rounded=0;fontSize=12;startSize=8;endSize=8;curved=1;exitX=1;exitY=0.3333333333333333;exitDx=0;exitDy=0;exitPerimeter=0;" edge="1" parent="1" source="MizX8AgPKp0LLZ88XBjT-1">
          <mxGeometry width="50" height="50" relative="1" as="geometry">
            <mxPoint x="50" y="210" as="sourcePoint" />
            <mxPoint x="100" y="160" as="targetPoint" />
          </mxGeometry>
        </mxCell>
        <mxCell id="akGYXQg80y4Ffx2eCv8U-3" value="" style="endArrow=classic;html=1;rounded=0;fontSize=12;startSize=8;endSize=8;curved=1;exitX=1;exitY=0.3333333333333333;exitDx=0;exitDy=0;exitPerimeter=0;" edge="1" parent="1" source="MizX8AgPKp0LLZ88XBjT-1">
          <mxGeometry width="50" height="50" relative="1" as="geometry">
            <mxPoint x="50" y="280" as="sourcePoint" />
            <mxPoint x="100" y="230" as="targetPoint" />
          </mxGeometry>
        </mxCell>
        <mxCell id="akGYXQg80y4Ffx2eCv8U-4" value="" style="endArrow=classic;html=1;rounded=0;fontSize=12;startSize=8;endSize=8;curved=1;exitX=1;exitY=0.3333333333333333;exitDx=0;exitDy=0;exitPerimeter=0;" edge="1" parent="1" source="MizX8AgPKp0LLZ88XBjT-1">
          <mxGeometry width="50" height="50" relative="1" as="geometry">
            <mxPoint x="50" y="360" as="sourcePoint" />
            <mxPoint x="100" y="310" as="targetPoint" />
          </mxGeometry>
        </mxCell>
        <mxCell id="akGYXQg80y4Ffx2eCv8U-5" value="" style="endArrow=classic;html=1;rounded=0;fontSize=12;startSize=8;endSize=8;curved=1;exitX=1;exitY=0.3333333333333333;exitDx=0;exitDy=0;exitPerimeter=0;" edge="1" parent="1" source="MizX8AgPKp0LLZ88XBjT-1">
          <mxGeometry width="50" height="50" relative="1" as="geometry">
            <mxPoint y="190" as="sourcePoint" />
            <mxPoint x="100" y="390" as="targetPoint" />
          </mxGeometry>
        </mxCell>
      </root>
    </mxGraphModel>
  </diagram>
  <diagram id="56vsNATJu3yDqt3bl_1f" name="第 3 页">
    <mxGraphModel dx="1110" dy="337" grid="1" gridSize="10" guides="1" tooltips="1" connect="1" arrows="1" fold="1" page="0" pageScale="1" pageWidth="827" pageHeight="1169" math="0" shadow="0">
      <root>
        <mxCell id="0" />
        <mxCell id="1" parent="0" />
        <mxCell id="xJaHLWqZE8nzAdX4ZRmH-1" value="" style="ellipse;html=1;shape=startState;fillColor=#000000;strokeColor=#ff0000;fontSize=16;" vertex="1" parent="1">
          <mxGeometry x="80" y="150" width="30" height="30" as="geometry" />
        </mxCell>
        <mxCell id="xJaHLWqZE8nzAdX4ZRmH-3" value="" style="rounded=1;whiteSpace=wrap;html=1;fontSize=16;" vertex="1" parent="1">
          <mxGeometry x="190" y="150" width="70" height="30" as="geometry" />
        </mxCell>
        <mxCell id="xJaHLWqZE8nzAdX4ZRmH-4" value="邮件确认" style="text;html=1;strokeColor=none;fillColor=none;align=center;verticalAlign=middle;whiteSpace=wrap;rounded=0;fontSize=16;" vertex="1" parent="1">
          <mxGeometry x="190" y="150" width="75" height="30" as="geometry" />
        </mxCell>
        <mxCell id="xJaHLWqZE8nzAdX4ZRmH-5" value="" style="endArrow=classic;html=1;rounded=0;fontSize=12;startSize=8;endSize=8;curved=1;exitX=1;exitY=0.5;exitDx=0;exitDy=0;entryX=0;entryY=0.5;entryDx=0;entryDy=0;" edge="1" parent="1" source="xJaHLWqZE8nzAdX4ZRmH-1" target="xJaHLWqZE8nzAdX4ZRmH-4">
          <mxGeometry width="50" height="50" relative="1" as="geometry">
            <mxPoint x="-30" y="210" as="sourcePoint" />
            <mxPoint x="20" y="160" as="targetPoint" />
            <Array as="points" />
          </mxGeometry>
        </mxCell>
        <mxCell id="xJaHLWqZE8nzAdX4ZRmH-7" value="" style="rhombus;whiteSpace=wrap;html=1;fontSize=16;" vertex="1" parent="1">
          <mxGeometry x="190" y="200" width="80" height="38" as="geometry" />
        </mxCell>
        <mxCell id="xJaHLWqZE8nzAdX4ZRmH-8" value="[有新邮件]" style="text;html=1;align=center;verticalAlign=middle;resizable=0;points=[];autosize=1;strokeColor=none;fillColor=none;fontSize=16;" vertex="1" parent="1">
          <mxGeometry x="30" y="190" width="100" height="30" as="geometry" />
        </mxCell>
        <mxCell id="xJaHLWqZE8nzAdX4ZRmH-9" value="[无新邮件]" style="text;html=1;align=center;verticalAlign=middle;resizable=0;points=[];autosize=1;strokeColor=none;fillColor=none;fontSize=16;" vertex="1" parent="1">
          <mxGeometry x="230" y="238" width="100" height="30" as="geometry" />
        </mxCell>
        <mxCell id="xJaHLWqZE8nzAdX4ZRmH-10" value="管理画面を表示させる" style="rounded=1;whiteSpace=wrap;html=1;fontSize=16;" vertex="1" parent="1">
          <mxGeometry x="90" y="310" width="80" height="50" as="geometry" />
        </mxCell>
        <mxCell id="xJaHLWqZE8nzAdX4ZRmH-11" value="ログイン処理を行う" style="rounded=1;whiteSpace=wrap;html=1;fontSize=16;" vertex="1" parent="1">
          <mxGeometry x="-20" y="310" width="85" height="50" as="geometry" />
        </mxCell>
        <mxCell id="xJaHLWqZE8nzAdX4ZRmH-12" value="" style="line;strokeWidth=1;fillColor=none;align=left;verticalAlign=middle;spacingTop=-1;spacingLeft=3;spacingRight=3;rotatable=0;labelPosition=right;points=[];portConstraint=eastwest;strokeColor=inherit;fontSize=16;" vertex="1" parent="1">
          <mxGeometry x="-30" y="280" width="220" height="8" as="geometry" />
        </mxCell>
        <mxCell id="xJaHLWqZE8nzAdX4ZRmH-13" value="" style="line;strokeWidth=1;fillColor=none;align=left;verticalAlign=middle;spacingTop=-1;spacingLeft=3;spacingRight=3;rotatable=0;labelPosition=right;points=[];portConstraint=eastwest;strokeColor=inherit;fontSize=16;" vertex="1" parent="1">
          <mxGeometry x="-30" y="390" width="220" height="8" as="geometry" />
        </mxCell>
        <mxCell id="xJaHLWqZE8nzAdX4ZRmH-14" style="edgeStyle=none;curved=1;rounded=0;orthogonalLoop=1;jettySize=auto;html=1;exitX=0.5;exitY=0;exitDx=0;exitDy=0;fontSize=12;startSize=8;endSize=8;" edge="1" parent="1" source="xJaHLWqZE8nzAdX4ZRmH-7" target="xJaHLWqZE8nzAdX4ZRmH-7">
          <mxGeometry relative="1" as="geometry" />
        </mxCell>
        <mxCell id="xJaHLWqZE8nzAdX4ZRmH-15" value="" style="endArrow=none;html=1;rounded=0;fontSize=12;startSize=8;endSize=8;curved=1;entryX=0;entryY=0.5;entryDx=0;entryDy=0;" edge="1" parent="1" target="xJaHLWqZE8nzAdX4ZRmH-7">
          <mxGeometry width="50" height="50" relative="1" as="geometry">
            <mxPoint y="220" as="sourcePoint" />
            <mxPoint x="50" y="220" as="targetPoint" />
          </mxGeometry>
        </mxCell>
        <mxCell id="xJaHLWqZE8nzAdX4ZRmH-16" value="" style="endArrow=classic;html=1;rounded=0;fontSize=12;startSize=8;endSize=8;curved=1;entryX=0.136;entryY=0;entryDx=0;entryDy=0;entryPerimeter=0;" edge="1" parent="1" target="xJaHLWqZE8nzAdX4ZRmH-12">
          <mxGeometry width="50" height="50" relative="1" as="geometry">
            <mxPoint y="220" as="sourcePoint" />
            <mxPoint x="15" y="230" as="targetPoint" />
          </mxGeometry>
        </mxCell>
        <mxCell id="xJaHLWqZE8nzAdX4ZRmH-17" value="" style="endArrow=classic;html=1;rounded=0;fontSize=12;startSize=8;endSize=8;curved=1;entryX=0.5;entryY=0;entryDx=0;entryDy=0;" edge="1" parent="1" target="xJaHLWqZE8nzAdX4ZRmH-10">
          <mxGeometry width="50" height="50" relative="1" as="geometry">
            <mxPoint x="130" y="290" as="sourcePoint" />
            <mxPoint x="220" y="270" as="targetPoint" />
          </mxGeometry>
        </mxCell>
        <mxCell id="xJaHLWqZE8nzAdX4ZRmH-18" value="" style="endArrow=classic;html=1;rounded=0;fontSize=12;startSize=8;endSize=8;curved=1;entryX=0.368;entryY=-0.057;entryDx=0;entryDy=0;exitX=0.188;exitY=0.776;exitDx=0;exitDy=0;exitPerimeter=0;entryPerimeter=0;" edge="1" parent="1" source="xJaHLWqZE8nzAdX4ZRmH-12" target="xJaHLWqZE8nzAdX4ZRmH-11">
          <mxGeometry width="50" height="50" relative="1" as="geometry">
            <mxPoint x="31" y="288" as="sourcePoint" />
            <mxPoint x="30" y="311" as="targetPoint" />
          </mxGeometry>
        </mxCell>
        <mxCell id="xJaHLWqZE8nzAdX4ZRmH-19" value="" style="endArrow=classic;html=1;rounded=0;fontSize=12;startSize=8;endSize=8;curved=1;entryX=0.21;entryY=0.198;entryDx=0;entryDy=0;exitX=0.42;exitY=1.003;exitDx=0;exitDy=0;exitPerimeter=0;entryPerimeter=0;" edge="1" parent="1" source="xJaHLWqZE8nzAdX4ZRmH-11" target="xJaHLWqZE8nzAdX4ZRmH-13">
          <mxGeometry width="50" height="50" relative="1" as="geometry">
            <mxPoint x="10" y="380" as="sourcePoint" />
            <mxPoint x="9" y="403" as="targetPoint" />
          </mxGeometry>
        </mxCell>
        <mxCell id="xJaHLWqZE8nzAdX4ZRmH-20" value="" style="endArrow=classic;html=1;rounded=0;fontSize=12;startSize=8;endSize=8;curved=1;entryX=0.732;entryY=0.198;entryDx=0;entryDy=0;exitX=0.5;exitY=1;exitDx=0;exitDy=0;entryPerimeter=0;" edge="1" parent="1" source="xJaHLWqZE8nzAdX4ZRmH-10" target="xJaHLWqZE8nzAdX4ZRmH-13">
          <mxGeometry width="50" height="50" relative="1" as="geometry">
            <mxPoint x="130" y="370" as="sourcePoint" />
            <mxPoint x="119" y="393" as="targetPoint" />
          </mxGeometry>
        </mxCell>
        <mxCell id="xJaHLWqZE8nzAdX4ZRmH-21" value="" style="rhombus;whiteSpace=wrap;html=1;fontSize=16;" vertex="1" parent="1">
          <mxGeometry x="190" y="430" width="80" height="38" as="geometry" />
        </mxCell>
        <mxCell id="xJaHLWqZE8nzAdX4ZRmH-22" value="" style="endArrow=classic;html=1;rounded=0;fontSize=12;startSize=8;endSize=8;curved=1;exitX=0.413;exitY=1.101;exitDx=0;exitDy=0;exitPerimeter=0;entryX=0.5;entryY=0;entryDx=0;entryDy=0;" edge="1" parent="1" source="xJaHLWqZE8nzAdX4ZRmH-4" target="xJaHLWqZE8nzAdX4ZRmH-7">
          <mxGeometry width="50" height="50" relative="1" as="geometry">
            <mxPoint x="190" y="220" as="sourcePoint" />
            <mxPoint x="190" y="190" as="targetPoint" />
          </mxGeometry>
        </mxCell>
        <mxCell id="xJaHLWqZE8nzAdX4ZRmH-24" value="" style="endArrow=classic;html=1;rounded=0;fontSize=12;startSize=8;endSize=8;curved=1;entryX=0.5;entryY=0;entryDx=0;entryDy=0;exitX=0.5;exitY=1;exitDx=0;exitDy=0;" edge="1" parent="1" source="xJaHLWqZE8nzAdX4ZRmH-7" target="xJaHLWqZE8nzAdX4ZRmH-21">
          <mxGeometry width="50" height="50" relative="1" as="geometry">
            <mxPoint x="210" y="310" as="sourcePoint" />
            <mxPoint x="260" y="260" as="targetPoint" />
          </mxGeometry>
        </mxCell>
        <mxCell id="xJaHLWqZE8nzAdX4ZRmH-25" value="" style="endArrow=classic;html=1;rounded=0;fontSize=12;startSize=8;endSize=8;curved=1;exitX=0.5;exitY=1;exitDx=0;exitDy=0;entryX=0.5;entryY=0;entryDx=0;entryDy=0;" edge="1" parent="1" source="xJaHLWqZE8nzAdX4ZRmH-21" target="xJaHLWqZE8nzAdX4ZRmH-26">
          <mxGeometry width="50" height="50" relative="1" as="geometry">
            <mxPoint x="190" y="540" as="sourcePoint" />
            <mxPoint x="200" y="510" as="targetPoint" />
          </mxGeometry>
        </mxCell>
        <mxCell id="xJaHLWqZE8nzAdX4ZRmH-26" value="" style="ellipse;html=1;shape=endState;fillColor=#000000;strokeColor=#ff0000;fontSize=16;" vertex="1" parent="1">
          <mxGeometry x="215" y="510" width="30" height="30" as="geometry" />
        </mxCell>
        <mxCell id="xJaHLWqZE8nzAdX4ZRmH-27" value="" style="endArrow=none;html=1;rounded=0;fontSize=12;startSize=8;endSize=8;curved=1;entryX=0.313;entryY=0.578;entryDx=0;entryDy=0;entryPerimeter=0;" edge="1" parent="1" target="xJaHLWqZE8nzAdX4ZRmH-13">
          <mxGeometry width="50" height="50" relative="1" as="geometry">
            <mxPoint x="39" y="450" as="sourcePoint" />
            <mxPoint x="50" y="400" as="targetPoint" />
          </mxGeometry>
        </mxCell>
        <mxCell id="xJaHLWqZE8nzAdX4ZRmH-28" value="" style="endArrow=classic;html=1;rounded=0;fontSize=12;startSize=8;endSize=8;curved=1;entryX=0;entryY=0.5;entryDx=0;entryDy=0;" edge="1" parent="1" target="xJaHLWqZE8nzAdX4ZRmH-21">
          <mxGeometry width="50" height="50" relative="1" as="geometry">
            <mxPoint x="40" y="449" as="sourcePoint" />
            <mxPoint x="130" y="440" as="targetPoint" />
          </mxGeometry>
        </mxCell>
      </root>
    </mxGraphModel>
  </diagram>
  <diagram id="dHGosslFqt_CmdhSVOWt" name="第 4 页">
    <mxGraphModel dx="1347" dy="849" grid="1" gridSize="10" guides="1" tooltips="1" connect="1" arrows="1" fold="1" page="0" pageScale="1" pageWidth="827" pageHeight="1169" math="0" shadow="0">
      <root>
        <mxCell id="0" />
        <mxCell id="1" parent="0" />
        <mxCell id="J-xyfUOx5rVMPMGuEXVZ-1" value="" style="ellipse;html=1;shape=startState;fillColor=#000000;strokeColor=#ff0000;fontSize=16;" vertex="1" parent="1">
          <mxGeometry x="160" y="-20" width="30" height="30" as="geometry" />
        </mxCell>
        <mxCell id="vWVnoQmREngMnBzjsasC-2" value="硬貨を受け付ける" style="rounded=1;whiteSpace=wrap;html=1;fontSize=16;" vertex="1" parent="1">
          <mxGeometry x="120" y="75" width="110" height="60" as="geometry" />
        </mxCell>
        <mxCell id="nTnsIDwXoQV6_3PiQ4xt-1" value="" style="rhombus;whiteSpace=wrap;html=1;fontSize=16;" vertex="1" parent="1">
          <mxGeometry x="135" y="170" width="80" height="38" as="geometry" />
        </mxCell>
        <mxCell id="xG--JubxFUDUEPh_P0rL-2" value="" style="endArrow=classic;html=1;rounded=0;fontSize=12;startSize=8;endSize=8;curved=1;exitX=0.5;exitY=1;exitDx=0;exitDy=0;entryX=0.5;entryY=0;entryDx=0;entryDy=0;" edge="1" parent="1" source="vWVnoQmREngMnBzjsasC-2" target="nTnsIDwXoQV6_3PiQ4xt-1">
          <mxGeometry width="50" height="50" relative="1" as="geometry">
            <mxPoint x="190" y="185" as="sourcePoint" />
            <mxPoint x="240" y="135" as="targetPoint" />
          </mxGeometry>
        </mxCell>
        <mxCell id="ZzYAkteuKXZ_DkxF-2aN-1" value="" style="endArrow=none;html=1;rounded=0;fontSize=12;startSize=8;endSize=8;curved=1;entryX=0;entryY=0.5;entryDx=0;entryDy=0;" edge="1" parent="1" target="nTnsIDwXoQV6_3PiQ4xt-1">
          <mxGeometry width="50" height="50" relative="1" as="geometry">
            <mxPoint x="-70" y="189.5" as="sourcePoint" />
            <mxPoint x="120" y="188.5" as="targetPoint" />
          </mxGeometry>
        </mxCell>
        <mxCell id="9kXzCyBLayutMqPOMLxw-1" value="" style="endArrow=classic;html=1;rounded=0;fontSize=12;startSize=8;endSize=8;curved=1;entryX=0.5;entryY=0;entryDx=0;entryDy=0;" edge="1" parent="1" target="BnrX4DIY2LYw-Bjb5m-T-1">
          <mxGeometry width="50" height="50" relative="1" as="geometry">
            <mxPoint x="-70" y="190" as="sourcePoint" />
            <mxPoint x="-69" y="255" as="targetPoint" />
            <Array as="points">
              <mxPoint x="-70" y="190" />
            </Array>
          </mxGeometry>
        </mxCell>
        <mxCell id="BnrX4DIY2LYw-Bjb5m-T-1" value="" style="rounded=1;whiteSpace=wrap;html=1;fontSize=16;" vertex="1" parent="1">
          <mxGeometry x="-110" y="290" width="85" height="50" as="geometry" />
        </mxCell>
        <mxCell id="PcbG3qoM0V5OYmFY5WOn-1" value="" style="endArrow=classic;html=1;rounded=0;fontSize=12;startSize=8;endSize=8;curved=1;entryX=0.5;entryY=0;entryDx=0;entryDy=0;exitX=0.5;exitY=1;exitDx=0;exitDy=0;" edge="1" parent="1" source="nTnsIDwXoQV6_3PiQ4xt-1" target="6Z7MzihSweENTbAr_ugP-4">
          <mxGeometry width="50" height="50" relative="1" as="geometry">
            <mxPoint x="174.5" y="208" as="sourcePoint" />
            <mxPoint x="175" y="400" as="targetPoint" />
          </mxGeometry>
        </mxCell>
        <mxCell id="sD7cTdD8ZnQk-mSBUWLX-1" value="" style="endArrow=none;html=1;rounded=0;fontSize=12;startSize=8;endSize=8;curved=1;entryX=0.5;entryY=1;entryDx=0;entryDy=0;" edge="1" parent="1" target="BnrX4DIY2LYw-Bjb5m-T-1">
          <mxGeometry width="50" height="50" relative="1" as="geometry">
            <mxPoint x="-67" y="420" as="sourcePoint" />
            <mxPoint x="-67.07999999999993" y="372.82399999999996" as="targetPoint" />
            <Array as="points" />
          </mxGeometry>
        </mxCell>
        <mxCell id="16ZBXATBATgeV61vs3v_-1" value="" style="endArrow=classic;html=1;rounded=0;fontSize=12;startSize=8;endSize=8;curved=1;entryX=0;entryY=0.25;entryDx=0;entryDy=0;" edge="1" parent="1" target="6Z7MzihSweENTbAr_ugP-4">
          <mxGeometry width="50" height="50" relative="1" as="geometry">
            <mxPoint x="-67" y="419" as="sourcePoint" />
            <mxPoint x="135" y="419" as="targetPoint" />
            <Array as="points">
              <mxPoint x="-17" y="419.5" />
            </Array>
          </mxGeometry>
        </mxCell>
        <mxCell id="4Hewh30pOJNd6I9iBQKv-2" value="[合計&amp;gt;120]" style="text;whiteSpace=wrap;html=1;fontSize=16;" vertex="1" parent="1">
          <mxGeometry x="-20" y="160" width="110" height="40" as="geometry" />
        </mxCell>
        <mxCell id="6Z7MzihSweENTbAr_ugP-1" value="[合計&amp;lt;120]" style="text;whiteSpace=wrap;html=1;fontSize=16;" vertex="1" parent="1">
          <mxGeometry x="320" y="140" width="110" height="40" as="geometry" />
        </mxCell>
        <mxCell id="6Z7MzihSweENTbAr_ugP-2" value="[合計=120]" style="text;whiteSpace=wrap;html=1;fontSize=16;" vertex="1" parent="1">
          <mxGeometry x="190" y="280" width="110" height="40" as="geometry" />
        </mxCell>
        <mxCell id="6Z7MzihSweENTbAr_ugP-4" value="" style="rounded=1;whiteSpace=wrap;html=1;fontSize=16;" vertex="1" parent="1">
          <mxGeometry x="135" y="400" width="85" height="70" as="geometry" />
        </mxCell>
        <mxCell id="6Z7MzihSweENTbAr_ugP-5" value="お釣りを出す" style="text;html=1;strokeColor=none;fillColor=none;align=center;verticalAlign=middle;whiteSpace=wrap;rounded=0;fontSize=16;" vertex="1" parent="1">
          <mxGeometry x="-97.5" y="300" width="60" height="30" as="geometry" />
        </mxCell>
        <mxCell id="6Z7MzihSweENTbAr_ugP-6" value="飲み物を出す" style="text;html=1;strokeColor=none;fillColor=none;align=center;verticalAlign=middle;whiteSpace=wrap;rounded=0;fontSize=16;" vertex="1" parent="1">
          <mxGeometry x="145" y="420" width="60" height="30" as="geometry" />
        </mxCell>
        <mxCell id="6Z7MzihSweENTbAr_ugP-7" value="" style="endArrow=none;html=1;rounded=0;fontSize=12;startSize=8;endSize=8;curved=1;entryX=0.5;entryY=1;entryDx=0;entryDy=0;" edge="1" parent="1" target="6Z7MzihSweENTbAr_ugP-4">
          <mxGeometry width="50" height="50" relative="1" as="geometry">
            <mxPoint x="178" y="520" as="sourcePoint" />
            <mxPoint x="180" y="480" as="targetPoint" />
          </mxGeometry>
        </mxCell>
        <mxCell id="6Z7MzihSweENTbAr_ugP-8" value="" style="endArrow=none;html=1;rounded=0;fontSize=12;startSize=8;endSize=8;curved=1;" edge="1" parent="1">
          <mxGeometry width="50" height="50" relative="1" as="geometry">
            <mxPoint x="-160" y="520" as="sourcePoint" />
            <mxPoint x="180" y="520" as="targetPoint" />
          </mxGeometry>
        </mxCell>
        <mxCell id="6Z7MzihSweENTbAr_ugP-10" value="" style="endArrow=classic;html=1;rounded=0;fontSize=12;startSize=8;endSize=8;curved=1;entryX=0.5;entryY=0;entryDx=0;entryDy=0;exitX=0.5;exitY=1;exitDx=0;exitDy=0;" edge="1" parent="1" source="J-xyfUOx5rVMPMGuEXVZ-1" target="vWVnoQmREngMnBzjsasC-2">
          <mxGeometry width="50" height="50" relative="1" as="geometry">
            <mxPoint x="95" y="60" as="sourcePoint" />
            <mxPoint x="145" y="10" as="targetPoint" />
          </mxGeometry>
        </mxCell>
        <mxCell id="6Z7MzihSweENTbAr_ugP-11" value="" style="endArrow=classic;html=1;rounded=0;fontSize=12;startSize=8;endSize=8;curved=1;entryX=-0.013;entryY=0.637;entryDx=0;entryDy=0;entryPerimeter=0;" edge="1" parent="1" target="vWVnoQmREngMnBzjsasC-2">
          <mxGeometry width="50" height="50" relative="1" as="geometry">
            <mxPoint x="-160" y="113" as="sourcePoint" />
            <mxPoint x="-97.5" y="90" as="targetPoint" />
          </mxGeometry>
        </mxCell>
        <mxCell id="6Z7MzihSweENTbAr_ugP-12" value="" style="endArrow=none;html=1;rounded=0;fontSize=12;startSize=8;endSize=8;curved=1;" edge="1" parent="1">
          <mxGeometry width="50" height="50" relative="1" as="geometry">
            <mxPoint x="-160" y="522" as="sourcePoint" />
            <mxPoint x="-160" y="112" as="targetPoint" />
          </mxGeometry>
        </mxCell>
        <mxCell id="6Z7MzihSweENTbAr_ugP-14" value="" style="endArrow=none;html=1;rounded=0;fontSize=12;startSize=8;endSize=8;curved=1;exitX=1;exitY=0.5;exitDx=0;exitDy=0;" edge="1" parent="1">
          <mxGeometry width="50" height="50" relative="1" as="geometry">
            <mxPoint x="214" y="189" as="sourcePoint" />
            <mxPoint x="310" y="190" as="targetPoint" />
          </mxGeometry>
        </mxCell>
        <mxCell id="6Z7MzihSweENTbAr_ugP-15" value="" style="endArrow=classic;html=1;rounded=0;fontSize=12;startSize=8;endSize=8;curved=1;entryX=1.03;entryY=0.63;entryDx=0;entryDy=0;entryPerimeter=0;" edge="1" parent="1" target="vWVnoQmREngMnBzjsasC-2">
          <mxGeometry width="50" height="50" relative="1" as="geometry">
            <mxPoint x="310" y="113" as="sourcePoint" />
            <mxPoint x="380" y="90" as="targetPoint" />
          </mxGeometry>
        </mxCell>
        <mxCell id="6Z7MzihSweENTbAr_ugP-16" value="" style="endArrow=none;html=1;rounded=0;fontSize=12;startSize=8;endSize=8;curved=1;" edge="1" parent="1">
          <mxGeometry width="50" height="50" relative="1" as="geometry">
            <mxPoint x="310" y="190" as="sourcePoint" />
            <mxPoint x="310" y="110" as="targetPoint" />
          </mxGeometry>
        </mxCell>
      </root>
    </mxGraphModel>
  </diagram>
  <diagram id="Fm2HBbSpYgIkCbSiHNhx" name="第 5 页">
    <mxGraphModel dx="890" dy="696" grid="1" gridSize="10" guides="1" tooltips="1" connect="1" arrows="1" fold="1" page="0" pageScale="1" pageWidth="827" pageHeight="1169" math="0" shadow="0">
      <root>
        <mxCell id="0" />
        <mxCell id="1" parent="0" />
        <mxCell id="9dGxErWMZVyBAwqrQBJU-1" value="社员" style="text;html=1;align=center;verticalAlign=middle;resizable=0;points=[];autosize=1;strokeColor=none;fillColor=none;fontSize=16;" vertex="1" parent="1">
          <mxGeometry x="-20" y="-132" width="60" height="30" as="geometry" />
        </mxCell>
        <mxCell id="9dGxErWMZVyBAwqrQBJU-2" value="铁道" style="text;html=1;align=center;verticalAlign=middle;resizable=0;points=[];autosize=1;strokeColor=none;fillColor=none;fontSize=16;" vertex="1" parent="1">
          <mxGeometry x="90" y="-132" width="60" height="30" as="geometry" />
        </mxCell>
        <mxCell id="9dGxErWMZVyBAwqrQBJU-3" value="飞行机" style="text;html=1;align=center;verticalAlign=middle;resizable=0;points=[];autosize=1;strokeColor=none;fillColor=none;fontSize=16;" vertex="1" parent="1">
          <mxGeometry x="175" y="-142" width="70" height="30" as="geometry" />
        </mxCell>
        <mxCell id="9dGxErWMZVyBAwqrQBJU-4" value="因国内出差的场合购买铁道的券，&lt;br&gt;国外的出差购买飞机票" style="text;html=1;align=center;verticalAlign=middle;resizable=0;points=[];autosize=1;strokeColor=none;fillColor=none;fontSize=16;" vertex="1" parent="1">
          <mxGeometry x="-140" y="-112" width="260" height="50" as="geometry" />
        </mxCell>
        <mxCell id="9dGxErWMZVyBAwqrQBJU-5" value="社员" style="shape=umlLifeline;perimeter=lifelinePerimeter;whiteSpace=wrap;html=1;container=1;dropTarget=0;collapsible=0;recursiveResize=0;outlineConnect=0;portConstraint=eastwest;newEdgeStyle={&quot;edgeStyle&quot;:&quot;elbowEdgeStyle&quot;,&quot;elbow&quot;:&quot;vertical&quot;,&quot;curved&quot;:0,&quot;rounded&quot;:0};fontSize=16;" vertex="1" parent="1">
          <mxGeometry x="-200" y="-60" width="100" height="300" as="geometry" />
        </mxCell>
        <mxCell id="9dGxErWMZVyBAwqrQBJU-8" value="" style="html=1;points=[];perimeter=orthogonalPerimeter;outlineConnect=0;targetShapes=umlLifeline;portConstraint=eastwest;newEdgeStyle={&quot;edgeStyle&quot;:&quot;elbowEdgeStyle&quot;,&quot;elbow&quot;:&quot;vertical&quot;,&quot;curved&quot;:0,&quot;rounded&quot;:0};fontSize=16;" vertex="1" parent="9dGxErWMZVyBAwqrQBJU-5">
          <mxGeometry x="45" y="50" width="10" height="230" as="geometry" />
        </mxCell>
        <mxCell id="9dGxErWMZVyBAwqrQBJU-6" value="铁道" style="shape=umlLifeline;perimeter=lifelinePerimeter;whiteSpace=wrap;html=1;container=1;dropTarget=0;collapsible=0;recursiveResize=0;outlineConnect=0;portConstraint=eastwest;newEdgeStyle={&quot;edgeStyle&quot;:&quot;elbowEdgeStyle&quot;,&quot;elbow&quot;:&quot;vertical&quot;,&quot;curved&quot;:0,&quot;rounded&quot;:0};fontSize=16;" vertex="1" parent="1">
          <mxGeometry y="-62" width="100" height="300" as="geometry" />
        </mxCell>
        <mxCell id="9dGxErWMZVyBAwqrQBJU-10" value="" style="html=1;points=[];perimeter=orthogonalPerimeter;outlineConnect=0;targetShapes=umlLifeline;portConstraint=eastwest;newEdgeStyle={&quot;edgeStyle&quot;:&quot;elbowEdgeStyle&quot;,&quot;elbow&quot;:&quot;vertical&quot;,&quot;curved&quot;:0,&quot;rounded&quot;:0};fontSize=16;" vertex="1" parent="9dGxErWMZVyBAwqrQBJU-6">
          <mxGeometry x="45" y="62" width="10" height="80" as="geometry" />
        </mxCell>
        <mxCell id="9dGxErWMZVyBAwqrQBJU-7" value="飞行机" style="shape=umlLifeline;perimeter=lifelinePerimeter;whiteSpace=wrap;html=1;container=1;dropTarget=0;collapsible=0;recursiveResize=0;outlineConnect=0;portConstraint=eastwest;newEdgeStyle={&quot;edgeStyle&quot;:&quot;elbowEdgeStyle&quot;,&quot;elbow&quot;:&quot;vertical&quot;,&quot;curved&quot;:0,&quot;rounded&quot;:0};fontSize=16;" vertex="1" parent="1">
          <mxGeometry x="190" y="-62" width="100" height="300" as="geometry" />
        </mxCell>
        <mxCell id="9dGxErWMZVyBAwqrQBJU-9" value="" style="html=1;points=[];perimeter=orthogonalPerimeter;outlineConnect=0;targetShapes=umlLifeline;portConstraint=eastwest;newEdgeStyle={&quot;edgeStyle&quot;:&quot;elbowEdgeStyle&quot;,&quot;elbow&quot;:&quot;vertical&quot;,&quot;curved&quot;:0,&quot;rounded&quot;:0};fontSize=16;" vertex="1" parent="9dGxErWMZVyBAwqrQBJU-7">
          <mxGeometry x="45" y="202" width="10" height="80" as="geometry" />
        </mxCell>
        <mxCell id="9dGxErWMZVyBAwqrQBJU-11" value="" style="endArrow=classic;html=1;rounded=0;fontSize=12;startSize=8;endSize=8;curved=1;dashed=1;" edge="1" parent="1" source="9dGxErWMZVyBAwqrQBJU-10">
          <mxGeometry width="50" height="50" relative="1" as="geometry">
            <mxPoint x="-35" y="70" as="sourcePoint" />
            <mxPoint x="-145" y="70" as="targetPoint" />
            <Array as="points">
              <mxPoint x="-100" y="70" />
            </Array>
          </mxGeometry>
        </mxCell>
        <mxCell id="9dGxErWMZVyBAwqrQBJU-12" value="" style="endArrow=classic;html=1;rounded=0;fontSize=12;startSize=8;endSize=8;curved=1;" edge="1" parent="1" target="9dGxErWMZVyBAwqrQBJU-10">
          <mxGeometry width="50" height="50" relative="1" as="geometry">
            <mxPoint x="-145" y="20" as="sourcePoint" />
            <mxPoint x="40" y="20" as="targetPoint" />
          </mxGeometry>
        </mxCell>
        <mxCell id="9dGxErWMZVyBAwqrQBJU-13" value="" style="endArrow=classic;html=1;rounded=0;fontSize=12;startSize=8;endSize=8;curved=1;" edge="1" parent="1" target="9dGxErWMZVyBAwqrQBJU-9">
          <mxGeometry width="50" height="50" relative="1" as="geometry">
            <mxPoint x="-145" y="140" as="sourcePoint" />
            <mxPoint x="-90" y="140" as="targetPoint" />
          </mxGeometry>
        </mxCell>
        <mxCell id="9dGxErWMZVyBAwqrQBJU-14" value="" style="endArrow=classic;html=1;rounded=0;fontSize=12;startSize=8;endSize=8;curved=1;dashed=1;" edge="1" parent="1">
          <mxGeometry width="50" height="50" relative="1" as="geometry">
            <mxPoint x="235" y="190" as="sourcePoint" />
            <mxPoint x="-145" y="190" as="targetPoint" />
          </mxGeometry>
        </mxCell>
        <mxCell id="9dGxErWMZVyBAwqrQBJU-16" value="购票" style="text;html=1;align=center;verticalAlign=middle;resizable=0;points=[];autosize=1;strokeColor=none;fillColor=none;fontSize=16;" vertex="1" parent="1">
          <mxGeometry x="-90" y="-12" width="60" height="30" as="geometry" />
        </mxCell>
        <mxCell id="9dGxErWMZVyBAwqrQBJU-17" value="购票" style="text;html=1;align=center;verticalAlign=middle;resizable=0;points=[];autosize=1;strokeColor=none;fillColor=none;fontSize=16;" vertex="1" parent="1">
          <mxGeometry x="-90" y="110" width="60" height="30" as="geometry" />
        </mxCell>
        <mxCell id="9dGxErWMZVyBAwqrQBJU-18" value="取票" style="text;html=1;align=center;verticalAlign=middle;resizable=0;points=[];autosize=1;strokeColor=none;fillColor=none;fontSize=16;" vertex="1" parent="1">
          <mxGeometry x="-90" y="38" width="60" height="30" as="geometry" />
        </mxCell>
        <mxCell id="9dGxErWMZVyBAwqrQBJU-19" value="取票" style="text;html=1;align=center;verticalAlign=middle;resizable=0;points=[];autosize=1;strokeColor=none;fillColor=none;fontSize=16;" vertex="1" parent="1">
          <mxGeometry x="-90" y="160" width="60" height="30" as="geometry" />
        </mxCell>
        <mxCell id="C_fDQ5Z_Ss4v00AcMm_s-1" value="alt" style="shape=umlFrame;whiteSpace=wrap;html=1;pointerEvents=0;fontSize=16;" vertex="1" parent="1">
          <mxGeometry x="-200" y="-12" width="480" height="262" as="geometry" />
        </mxCell>
        <mxCell id="C_fDQ5Z_Ss4v00AcMm_s-2" value="[国内]" style="text;html=1;align=center;verticalAlign=middle;resizable=0;points=[];autosize=1;strokeColor=none;fillColor=none;fontSize=16;" vertex="1" parent="1">
          <mxGeometry x="-140" y="-12" width="60" height="30" as="geometry" />
        </mxCell>
        <mxCell id="C_fDQ5Z_Ss4v00AcMm_s-3" value="[海外]" style="text;html=1;align=center;verticalAlign=middle;resizable=0;points=[];autosize=1;strokeColor=none;fillColor=none;fontSize=16;" vertex="1" parent="1">
          <mxGeometry x="-140" y="110" width="60" height="30" as="geometry" />
        </mxCell>
        <mxCell id="C_fDQ5Z_Ss4v00AcMm_s-5" value="" style="endArrow=none;dashed=1;html=1;dashPattern=1 3;strokeWidth=2;rounded=0;fontSize=12;startSize=8;endSize=8;curved=1;" edge="1" parent="1">
          <mxGeometry width="50" height="50" relative="1" as="geometry">
            <mxPoint x="20" y="20" as="sourcePoint" />
            <mxPoint x="70" y="-30" as="targetPoint" />
          </mxGeometry>
        </mxCell>
        <mxCell id="C_fDQ5Z_Ss4v00AcMm_s-6" value="" style="endArrow=none;dashed=1;html=1;dashPattern=1 3;strokeWidth=2;rounded=0;fontSize=12;startSize=8;endSize=8;curved=1;entryX=0.997;entryY=0.421;entryDx=0;entryDy=0;entryPerimeter=0;exitX=0.021;exitY=0.421;exitDx=0;exitDy=0;exitPerimeter=0;" edge="1" parent="1" source="C_fDQ5Z_Ss4v00AcMm_s-1" target="C_fDQ5Z_Ss4v00AcMm_s-1">
          <mxGeometry width="50" height="50" relative="1" as="geometry">
            <mxPoint x="-10" y="110" as="sourcePoint" />
            <mxPoint x="190" y="89.89999999999998" as="targetPoint" />
          </mxGeometry>
        </mxCell>
      </root>
    </mxGraphModel>
  </diagram>
  <diagram id="XQUeQTilUxbRGAGuy_oG" name="第 6 页">
    <mxGraphModel dx="1110" dy="737" grid="1" gridSize="10" guides="1" tooltips="1" connect="1" arrows="1" fold="1" page="0" pageScale="1" pageWidth="827" pageHeight="1169" math="0" shadow="0">
      <root>
        <mxCell id="0" />
        <mxCell id="1" parent="0" />
        <mxCell id="IIjBTb7ltqP-mUCItqYL-1" value="继承关系的class图" style="text;html=1;align=center;verticalAlign=middle;resizable=0;points=[];autosize=1;strokeColor=none;fillColor=none;fontSize=16;" vertex="1" parent="1">
          <mxGeometry x="80" y="-170" width="160" height="30" as="geometry" />
        </mxCell>
        <mxCell id="IIjBTb7ltqP-mUCItqYL-2" value="Animal类" style="text;html=1;align=center;verticalAlign=middle;resizable=0;points=[];autosize=1;strokeColor=none;fillColor=none;fontSize=16;" vertex="1" parent="1">
          <mxGeometry x="-55" y="-260" width="90" height="30" as="geometry" />
        </mxCell>
        <mxCell id="IIjBTb7ltqP-mUCItqYL-3" value="public String name；" style="text;html=1;align=center;verticalAlign=middle;resizable=0;points=[];autosize=1;strokeColor=none;fillColor=none;fontSize=16;" vertex="1" parent="1">
          <mxGeometry x="-80" y="-230" width="170" height="30" as="geometry" />
        </mxCell>
        <mxCell id="IIjBTb7ltqP-mUCItqYL-4" value="public String eat (String food)" style="text;html=1;align=center;verticalAlign=middle;resizable=0;points=[];autosize=1;strokeColor=none;fillColor=none;fontSize=16;" vertex="1" parent="1">
          <mxGeometry x="-110" y="-200" width="230" height="30" as="geometry" />
        </mxCell>
        <mxCell id="IIjBTb7ltqP-mUCItqYL-5" value="Catl类" style="text;html=1;align=center;verticalAlign=middle;resizable=0;points=[];autosize=1;strokeColor=none;fillColor=none;fontSize=16;" vertex="1" parent="1">
          <mxGeometry x="180" y="-280" width="70" height="30" as="geometry" />
        </mxCell>
        <mxCell id="IIjBTb7ltqP-mUCItqYL-6" value="Animal" style="swimlane;fontStyle=1;align=center;verticalAlign=top;childLayout=stackLayout;horizontal=1;startSize=26;horizontalStack=0;resizeParent=1;resizeParentMax=0;resizeLast=0;collapsible=1;marginBottom=0;whiteSpace=wrap;html=1;fontSize=16;" vertex="1" parent="1">
          <mxGeometry x="-70" y="-140" width="190" height="86" as="geometry" />
        </mxCell>
        <mxCell id="IIjBTb7ltqP-mUCItqYL-7" value="+ name:String" style="text;strokeColor=none;fillColor=none;align=left;verticalAlign=top;spacingLeft=4;spacingRight=4;overflow=hidden;rotatable=0;points=[[0,0.5],[1,0.5]];portConstraint=eastwest;whiteSpace=wrap;html=1;fontSize=16;" vertex="1" parent="IIjBTb7ltqP-mUCItqYL-6">
          <mxGeometry y="26" width="190" height="26" as="geometry" />
        </mxCell>
        <mxCell id="IIjBTb7ltqP-mUCItqYL-8" value="" style="line;strokeWidth=1;fillColor=none;align=left;verticalAlign=middle;spacingTop=-1;spacingLeft=3;spacingRight=3;rotatable=0;labelPosition=right;points=[];portConstraint=eastwest;strokeColor=inherit;fontSize=16;" vertex="1" parent="IIjBTb7ltqP-mUCItqYL-6">
          <mxGeometry y="52" width="190" height="8" as="geometry" />
        </mxCell>
        <mxCell id="IIjBTb7ltqP-mUCItqYL-9" value="+ eat(food:String):String" style="text;strokeColor=none;fillColor=none;align=left;verticalAlign=top;spacingLeft=4;spacingRight=4;overflow=hidden;rotatable=0;points=[[0,0.5],[1,0.5]];portConstraint=eastwest;whiteSpace=wrap;html=1;fontSize=16;" vertex="1" parent="IIjBTb7ltqP-mUCItqYL-6">
          <mxGeometry y="60" width="190" height="26" as="geometry" />
        </mxCell>
        <mxCell id="IIjBTb7ltqP-mUCItqYL-10" value="CAt" style="swimlane;fontStyle=1;align=center;verticalAlign=top;childLayout=stackLayout;horizontal=1;startSize=26;horizontalStack=0;resizeParent=1;resizeParentMax=0;resizeLast=0;collapsible=1;marginBottom=0;whiteSpace=wrap;html=1;fontSize=16;" vertex="1" parent="1">
          <mxGeometry x="200" y="-140" width="160" height="86" as="geometry" />
        </mxCell>
        <mxCell id="IIjBTb7ltqP-mUCItqYL-11" value="+ color:String" style="text;strokeColor=none;fillColor=none;align=left;verticalAlign=top;spacingLeft=4;spacingRight=4;overflow=hidden;rotatable=0;points=[[0,0.5],[1,0.5]];portConstraint=eastwest;whiteSpace=wrap;html=1;fontSize=16;" vertex="1" parent="IIjBTb7ltqP-mUCItqYL-10">
          <mxGeometry y="26" width="160" height="26" as="geometry" />
        </mxCell>
        <mxCell id="IIjBTb7ltqP-mUCItqYL-12" value="" style="line;strokeWidth=1;fillColor=none;align=left;verticalAlign=middle;spacingTop=-1;spacingLeft=3;spacingRight=3;rotatable=0;labelPosition=right;points=[];portConstraint=eastwest;strokeColor=inherit;fontSize=16;" vertex="1" parent="IIjBTb7ltqP-mUCItqYL-10">
          <mxGeometry y="52" width="160" height="8" as="geometry" />
        </mxCell>
        <mxCell id="IIjBTb7ltqP-mUCItqYL-13" value="+ mewo:void" style="text;strokeColor=none;fillColor=none;align=left;verticalAlign=top;spacingLeft=4;spacingRight=4;overflow=hidden;rotatable=0;points=[[0,0.5],[1,0.5]];portConstraint=eastwest;whiteSpace=wrap;html=1;fontSize=16;" vertex="1" parent="IIjBTb7ltqP-mUCItqYL-10">
          <mxGeometry y="60" width="160" height="26" as="geometry" />
        </mxCell>
        <mxCell id="IIjBTb7ltqP-mUCItqYL-14" style="edgeStyle=none;curved=1;rounded=0;orthogonalLoop=1;jettySize=auto;html=1;exitX=0.75;exitY=0;exitDx=0;exitDy=0;fontSize=12;startSize=8;endSize=8;" edge="1" parent="1" source="IIjBTb7ltqP-mUCItqYL-6" target="IIjBTb7ltqP-mUCItqYL-6">
          <mxGeometry relative="1" as="geometry" />
        </mxCell>
        <mxCell id="IIjBTb7ltqP-mUCItqYL-15" value="private String color；" style="text;html=1;align=center;verticalAlign=middle;resizable=0;points=[];autosize=1;strokeColor=none;fillColor=none;fontSize=16;" vertex="1" parent="1">
          <mxGeometry x="160" y="-240" width="170" height="30" as="geometry" />
        </mxCell>
        <mxCell id="IIjBTb7ltqP-mUCItqYL-16" value="public void mewo；" style="text;html=1;align=center;verticalAlign=middle;resizable=0;points=[];autosize=1;strokeColor=none;fillColor=none;fontSize=16;" vertex="1" parent="1">
          <mxGeometry x="160" y="-210" width="160" height="30" as="geometry" />
        </mxCell>
        <mxCell id="IIjBTb7ltqP-mUCItqYL-17" value="" style="endArrow=block;html=1;rounded=0;fontSize=12;startSize=8;endSize=8;curved=1;entryX=1;entryY=0.5;entryDx=0;entryDy=0;exitX=0;exitY=0.5;exitDx=0;exitDy=0;endFill=0;" edge="1" parent="1" source="IIjBTb7ltqP-mUCItqYL-11" target="IIjBTb7ltqP-mUCItqYL-7">
          <mxGeometry width="50" height="50" relative="1" as="geometry">
            <mxPoint x="140" y="-70" as="sourcePoint" />
            <mxPoint x="190" y="-120" as="targetPoint" />
          </mxGeometry>
        </mxCell>
      </root>
    </mxGraphModel>
  </diagram>
  <diagram id="VUZKBzpNE7c2nzxRv91S" name="第 7 页">
    <mxGraphModel dx="710" dy="337" grid="1" gridSize="10" guides="1" tooltips="1" connect="1" arrows="1" fold="1" page="0" pageScale="1" pageWidth="827" pageHeight="1169" math="0" shadow="0">
      <root>
        <mxCell id="0" />
        <mxCell id="1" parent="0" />
      </root>
    </mxGraphModel>
  </diagram>
</mxfile>
